<?xml version="1.0" encoding="UTF-8" standalone="no"?>
<!-- Created with Inkscape (http://www.inkscape.org/) -->

<svg
   width="10.931892mm"
   height="10.931892mm"
   viewBox="0 0 10.931892 10.931892"
   version="1.1"
   id="svg1"
   xml:space="preserve"
   xmlns="http://www.w3.org/2000/svg"
   xmlns:svg="http://www.w3.org/2000/svg"><defs
     id="defs1"><linearGradient
       id="swatch404"><stop
         style="stop-color:#323232;stop-opacity:1;"
         offset="0"
         id="stop404" /></linearGradient></defs><g
     id="layer1"
     transform="translate(-703.06677,-466.37565)"><path
       id="rect12-0-2-3-7"
       style="opacity:0;fill:#ffffff;fill-opacity:1;stroke:none;stroke-width:0.720798;stroke-linecap:square;stroke-linejoin:miter;stroke-dasharray:none;stroke-opacity:1;paint-order:normal"
       d="m 702.56883,455.44372 v 10.93188 h 5.21698 v -10.93188 z m 5.71489,0 v 10.93188 h 5.21698 v -10.93188 z" /><path
       id="rect12-0-2-3-7-6"
       style="opacity:0;fill:#ffffff;fill-opacity:1;stroke:none;stroke-width:0.720798;stroke-linecap:square;stroke-linejoin:miter;stroke-dasharray:none;stroke-opacity:1;paint-order:normal"
       d="m 703.06674,466.3756 v 10.93188 h 5.21698 V 466.3756 Z m 5.71489,0 v 10.93188 h 5.21698 V 466.3756 Z" /><path
       id="rect2-3-4-4-7-3-6-1-74-7-1-3-64-1-6-7-9-4-8-7-7-6-2-2-9-9-0-5-7-6-0-2"
       style="fill:#8ea637;fill-opacity:1;stroke-width:2.48895;stroke-linejoin:round"
       d="m 710.21435,468.05728 v 5.2e-4 h -1.89239 -1.89188 a 3.78422,3.78422 0 0 0 3.78427,3.78426 h -2.83859 -2.83755 a 5.67633,3.78422 0 0 0 5.67614,3.78427 v -5.2e-4 a 3.78422,3.78422 0 0 0 3.78426,-3.78427 3.78422,3.78422 0 0 0 -3.78426,-3.78426 z" /></g></svg>
